# xmcd CD database file
#
# Track frame offsets:
#	150
#	14975
#	34457
#	52382
#	68947
#	83320
#	102172
#	120842
#	140087
#	154537
#
# Disc length: 2238 seconds
#
# Revision: 3
# Processed by: cddbd v1.5.2PL0 Copyright (c) Steve Scherf et al.
# Submitted via: CDex 2.18
#
DISCID=8708bc0a
DTITLE=Hollies - The Hollies  [CD2)
DYEAR=1996
DGENRE=Oldies
TTITLE0=Long Cool Woman (In A Black Dress)
TTITLE1=He Ain't Heavy, He's My Brother
TTITLE2=Pick Up The Pieces Again
TTITLE3=It's A Shame, It's A Game
TTITLE4=Falling Calling
TTITLE5=The Air That I Breathe
TTITLE6=Sandy
TTITLE7=Long Dark Road
TTITLE8=Magic Woman Touch
TTITLE9=Have You Ever Loved Somebody
EXTD=YEAR: 1996
EXTT0=
EXTT1=
EXTT2=
EXTT3=
EXTT4=
EXTT5=
EXTT6=
EXTT7=
EXTT8=
EXTT9=
PLAYORDER=
